<svg width="24" height="24" fill="none" xmlns="http://www.w3.org/2000/svg"><g clip-path="url(#a)" stroke="#000" stroke-width="2" stroke-linecap="round" stroke-linejoin="round"><path d="M5 5a1 1 0 0 1 1-1h2a1 1 0 0 1 1 1v14a1 1 0 0 1-1 1H6a1 1 0 0 1-1-1V5ZM9 5a1 1 0 0 1 1-1h2a1 1 0 0 1 1 1v14a1 1 0 0 1-1 1h-2a1 1 0 0 1-1-1V5ZM5 8h4M9 16h4"/><path d="m13.803 4.56 2.184-.53c.562-.135 1.133.19 1.282.732l3.695 13.418a1.02 1.02 0 0 1-.634 1.219l-.133.041-2.184.53c-.562.135-1.133-.19-1.282-.732L13.036 5.82a1.02 1.02 0 0 1 .634-1.219l.133-.041ZM14 9l4-1M16 16l3.923-.98"/></g><defs><clipPath id="a"><path fill="#fff" d="M0 0h24v24H0z"/></clipPath></defs></svg>